<svg xmlns="http://www.w3.org/2000/svg" width="1024" height="1024" preserveAspectRatio="xMidYMid meet" version="1.0" viewBox="0 0 768 768"><g fill="#000" stroke="none"><path d="M1150 7375 c-385 -70 -711 -353 -835 -725 -58 -175 -55 -3 -55 -2812 0 -2552 0 -2581 20 -2679 91 -444 453 -790 900 -859 56 -8 749 -10 2675 -8 l2600 3 85 24 c208 58 380 158 531 310 174 174 285 378 334 612 22 104 23 5048 1 5162 -82 429 -383 791 -770 926 -185 65 -3 61 -2835 60 -2132 -1 -2589 -3 -2651 -14z m5212 -45 c428 -41 784 -331 936 -762 51 -143 62 -226 62 -459 l0 -209 -685 0 -685 0 0 -104 0 -103 -302 -6 c-327 -6 -387 -14 -460 -62 -84 -55 -98 -131 -98 -517 l0 -288 430 0 c237 0 430 -3 430 -7 0 -5 -23 -219 -50 -478 -27 -258 -50 -471 -50 -472 0 -2 -171 -3 -380 -3 l-380 0 -2 -1392 -3 -1393 -570 0 -570 0 -3 1392 -2 1393 -285 0 -285 0 0 480 0 480 285 0 285 0 0 336 c0 349 10 515 39 659 l17 85 -1859 0 -1859 0 5 293 c5 332 12 375 91 543 58 123 115 204 205 295 169 168 394 276 621 298 128 12 4992 13 5122 1z" transform="translate(0.000000,768.000000) scale(0.100000,-0.100000)"/></g></svg>