<?xml version="1.0" standalone="no"?>
<!DOCTYPE svg PUBLIC "-//W3C//DTD SVG 20010904//EN"
 "http://www.w3.org/TR/2001/REC-SVG-20010904/DTD/svg10.dtd">
<svg version="1.0" xmlns="http://www.w3.org/2000/svg"
 width="1024.000000pt" height="1024.000000pt" viewBox="0 0 1024.000000 1024.000000"
 preserveAspectRatio="xMidYMid meet">

<g transform="translate(0.000000,1024.000000) scale(0.100000,-0.100000)"
fill="#000000" stroke="none">
<path d="M1675 9849 c-44 -5 -127 -21 -185 -35 -265 -66 -486 -191 -679 -385
-208 -207 -336 -446 -403 -749 l-23 -105 0 -3445 c0 -3323 1 -3449 19 -3545
56 -298 194 -562 406 -775 213 -213 474 -349 785 -408 84 -16 327 -17 3525
-17 3198 0 3441 1 3525 17 218 42 428 128 607 250 116 78 311 272 397 393 117
166 222 407 267 615 18 82 19 203 19 3435 l0 3350 -23 108 c-48 225 -140 442
-269 635 -77 116 -290 329 -408 409 -212 143 -437 226 -687 253 -121 13 -6754
12 -6873 -1z m6995 -92 c291 -70 503 -184 707 -380 230 -222 369 -470 451
-807 24 -102 25 -117 29 -507 l5 -403 -1041 0 -1041 0 50 -100 c181 -360 255
-691 267 -1185 6 -256 -4 -453 -33 -650 -119 -824 -492 -1544 -1019 -1970
-399 -322 -865 -479 -1370 -462 -247 8 -425 52 -603 147 -43 23 -182 111 -310
197 -127 86 -235 154 -238 150 -3 -3 -30 -122 -59 -264 -223 -1091 -457 -1669
-855 -2113 -72 -80 -279 -264 -288 -256 -6 7 -23 140 -37 306 -18 193 -20 663
-5 855 46 583 121 959 395 1991 109 409 142 539 205 818 l38 169 -39 81 c-132
271 -162 629 -83 985 102 459 358 792 674 877 210 56 499 -18 649 -167 114
-113 155 -232 155 -444 0 -241 -34 -387 -248 -1074 -133 -426 -176 -631 -176
-835 0 -207 43 -329 155 -441 72 -73 185 -132 320 -167 78 -20 113 -23 265
-22 161 0 182 3 264 28 439 134 791 550 995 1180 67 205 109 398 143 656 20
150 17 607 -5 755 -58 388 -186 714 -357 908 l-42 47 -1469 0 -1470 0 -106
-102 c-312 -304 -522 -680 -609 -1090 -20 -98 -27 -162 -31 -318 -11 -380 25
-533 191 -809 137 -227 172 -329 163 -481 -6 -108 -30 -194 -90 -323 l-41 -89
-35 7 c-62 11 -266 82 -332 116 -402 202 -634 560 -716 1106 -22 149 -26 666
-5 808 57 397 187 757 386 1073 l65 102 -1016 0 -1015 0 5 463 c4 431 6 469
26 562 128 576 583 999 1166 1084 33 5 1592 8 3500 7 3269 -1 3444 -2 3515
-19z"/>
</g>
</svg>
